{"title":"Devdas 2002 Hindi DvDrip 720p x264...Hon3y","uid":7631779,"size":3312437330,"categoryP":"video","categoryS":"hd___movies","magnet":"?xt=urn:btih:c052f35287023c64513129fae388def596fed4e3&amp;dn=Devdas+2002+Hindi+DvDrip+720p+x264...Hon3y&amp;tr=udp%3A%2F%2Ftracker.openbittorrent.com%3A80&amp;tr=udp%3A%2F%2Fopen.demonii.com%3A1337&amp;tr=udp%3A%2F%2Ftracker.coppersurfer.tk%3A6969&amp;tr=udp%3A%2F%2Fexodus.desync.com%3A6969","seeders":0,"leechers":1,"uploader":"honey8ee","files":-1,"time":1347556588,"description":" &lt;a href=&quot;http://www.imdb.com/title/tt0238936/&quot; rel=&quot;nofollow&quot; target=&quot;_NEW&quot;&gt;http://www.imdb.com/title/tt0238936/&lt;/a&gt;\n &lt;a href=&quot;\nhttp://en.wikipedia.org/wiki/Devdas_(2002_film)&quot; rel=&quot;nofollow&quot; target=&quot;_NEW&quot;&gt;\nhttp://en.wikipedia.org/wiki/Devdas_(2002_film)&lt;/a&gt;\n\n\nFormat                                   : Matroska\nFormat version                           : Version 2\nFile size                                : 3.08 GiB\nDuration                                 : 3h 4mn\nOverall bit rate                         : 2 385 Kbps\n\n\nVideo\nID                                       : 1\nFormat                                   : AVC\nFormat/Info                              : Advanced Video Codec\nFormat profile                           : &lt;a class=&quot;__cf_email__&quot; href=&quot;/cdn-cgi/l/email-protection&quot; data-cfemail=&quot;94dcfdf3fcd4d8a0baa5&quot;&gt;[email&amp;#160;protected]&lt;/a&gt;&lt;script cf-hash='f9e31' type=&quot;text/javascript&quot;&gt;\n/* &lt;![CDATA[ */!function(){try{var t=&quot;currentScript&quot;in document?document.currentScript:function(){for(var t=document.getElementsByTagName(&quot;script&quot;),e=t.length;e--;)if(t[e].getAttribute(&quot;cf-hash&quot;))return t[e]}();if(t&amp;&amp;t.previousSibling){var e,r,n,i,c=t.previousSibling,a=c.getAttribute(&quot;data-cfemail&quot;);if(a){for(e=&quot;&quot;,r=parseInt(a.substr(0,2),16),n=2;a.length-n;n+=2)i=parseInt(a.substr(n,2),16)^r,e+=String.fromCharCode(i);e=document.createTextNode(e),c.parentNode.replaceChild(e,c)}}}catch(u){}}();/* ]]&gt; */&lt;/script&gt;\nFormat settings, CABAC                   : Yes\nFormat settings, ReFrames                : 4 frames\nMuxing mode                              : Header stripping\nCodec ID                                 : V_MPEG4/ISO/AVC\nDuration                                 : 3h 4mn\nBit rate                                 : 2 000 Kbps\nWidth                                    : 1 280 pixels\nHeight                                   : 576 pixels\nDisplay aspect ratio                     : 2.2:1\nOriginal display aspect ratio            : 2.2:1\nFrame rate mode                          : Constant\nFrame rate                               : 23.976 fps\nStream size                              : 2.52 GiB (82%)\n\n\nAudio\nID                                       : 2\nFormat                                   : AC-3\nDuration                                 : 3h 4mn\nBit rate mode                            : Constant\nBit rate                                 : 384 Kbps\nChannel(s)                               : 6 channels\nChannel positions                        : Front: L C R, Side: L R, LFE\nSampling rate                            : 48.0 KHz\nBit depth                                : 16 bits\nStream size                              : 507 MiB (16%)\nLanguage                                 : Hindi\n\n &lt;a href=&quot;\nhttp://www.freeimgsharing.com/images/74878714042041767140.png&quot; rel=&quot;nofollow&quot; target=&quot;_NEW&quot;&gt;\nhttp://www.freeimgsharing.com/images/74878714042041767140.png&lt;/a&gt;\n &lt;a href=&quot;\nhttp://www.freeimgsharing.com/images/84191043154521960033.png&quot; rel=&quot;nofollow&quot; target=&quot;_NEW&quot;&gt;\nhttp://www.freeimgsharing.com/images/84191043154521960033.png&lt;/a&gt;\n &lt;a href=&quot;\nhttp://www.freeimgsharing.com/images/23755022822912727474.png&quot; rel=&quot;nofollow&quot; target=&quot;_NEW&quot;&gt;\nhttp://www.freeimgsharing.com/images/23755022822912727474.png&lt;/a&gt;\n &lt;a href=&quot;\nhttp://www.freeimgsharing.com/images/57732384543945903955.png&quot; rel=&quot;nofollow&quot; target=&quot;_NEW&quot;&gt;\nhttp://www.freeimgsharing.com/images/57732384543945903955.png&lt;/a&gt;\n &lt;a href=&quot;\nhttp://www.freeimgsharing.com/images/71632205625662410509.png&quot; rel=&quot;nofollow&quot; target=&quot;_NEW&quot;&gt;\nhttp://www.freeimgsharing.com/images/71632205625662410509.png&lt;/a&gt;\n &lt;a href=&quot;\nhttp://www.freeimgsharing.com/images/89942688767966609995.png&quot; rel=&quot;nofollow&quot; target=&quot;_NEW&quot;&gt;\nhttp://www.freeimgsharing.com/images/89942688767966609995.png&lt;/a&gt;\n &lt;a href=&quot;\nhttp://www.freeimgsharing.com/images/96360212856659300881.png&quot; rel=&quot;nofollow&quot; target=&quot;_NEW&quot;&gt;\nhttp://www.freeimgsharing.com/images/96360212856659300881.png&lt;/a&gt;\n &lt;a href=&quot;\nhttp://www.freeimgsharing.com/images/86705622392508023513.png&quot; rel=&quot;nofollow&quot; target=&quot;_NEW&quot;&gt;\nhttp://www.freeimgsharing.com/images/86705622392508023513.png&lt;/a&gt;\n &lt;a href=&quot;\nhttp://www.freeimgsharing.com/images/87407280713507253272.png&quot; rel=&quot;nofollow&quot; target=&quot;_NEW&quot;&gt;\nhttp://www.freeimgsharing.com/images/87407280713507253272.png&lt;/a&gt;\n &lt;a href=&quot;\nhttp://www.freeimgsharing.com/images/91002754928230148957.png&quot; rel=&quot;nofollow&quot; target=&quot;_NEW&quot;&gt;\nhttp://www.freeimgsharing.com/images/91002754928230148957.png&lt;/a&gt;\n &lt;a href=&quot;\nhttp://www.freeimgsharing.com/images/90687679638390277591.png&quot; rel=&quot;nofollow&quot; target=&quot;_NEW&quot;&gt;\nhttp://www.freeimgsharing.com/images/90687679638390277591.png&lt;/a&gt;\n","torrent":{"xt":"urn:btih:c052f35287023c64513129fae388def596fed4e3","amp;dn":"Devdas+2002+Hindi+DvDrip+720p+x264...Hon3y","amp;tr":["udp%3A%2F%2Ftracker.openbittorrent.com%3A80","udp%3A%2F%2Fopen.demonii.com%3A1337","udp%3A%2F%2Ftracker.coppersurfer.tk%3A6969","udp%3A%2F%2Fexodus.desync.com%3A6969"],"infoHash":"c052f35287023c64513129fae388def596fed4e3","infoHashBuffer":{"type":"Buffer","data":[192,82,243,82,135,2,60,100,81,49,41,250,227,136,222,245,150,254,212,227]},"announce":[],"urlList":[]}}